<svg width="98.784mm" height="71.065mm" fill-rule="evenodd" stroke-linejoin="round" stroke-width="28.222" preserveAspectRatio="xMidYMid" version="1.2" viewBox="0 0 9878.4 7106.5" xml:space="preserve" xmlns="http://www.w3.org/2000/svg">
 <g transform="translate(288.21 -2219)">
 </g>
<g transform="translate(-1824.9 1.6e-5)"><g class="Group" transform="translate(-19428 871.41)"><g class="Group" transform="matrix(1.8157 0 0 1.8157 -21729 -2832.4)"><g class="com.sun.star.drawing.ClosedBezierShape"><rect class="BoundingBox" x="24909" y="1080" width="2947" height="2947" fill="none"/><path d="m26382 4025c813 0 1473-659 1473-1472 0-814-660-1473-1473-1473s-1473 659-1473 1473c0 813 660 1472 1473 1472z" fill="#dd2424"/><rect class="BoundingBox" x="25802" y="1961" width="405" height="405" fill="none"/><path d="m26156 1961c-196 0-354 159-354 354 0 28 22 50 50 50s50-22 50-50c0-139 114-253 254-253 28 0 50-23 50-51s-22-50-50-50z" fill="#fff"/><rect class="BoundingBox" x="25603" y="1763" width="1578" height="1619" fill="none"/><path d="m27166 3132-390-395c-9-9-21-16-36-15-13 0-26 6-35 15l-53 53-97-98c93-99 151-231 151-377 0-304-247-552-551-552s-551 248-551 552 247 551 551 551c121 0 234-40 325-107l101 102-46 46c-20 19-20 51 0 71l381 387c10 10 23 15 36 15s25-4 35-13l177-163c10-9 16-22 16-36 0-13-5-27-14-36zm-1461-817c0-248 202-451 450-451s450 203 450 451-202 450-450 450-450-202-450-450zm1249 945-312-317 98-99 317 321z" fill="#fff"/></g></g></g><g transform="translate(2113.1 -2219)" fill="#dd2424" stroke-width="864.75" aria-label="STEM &amp; Innovation"><path d="m1058.2 8662.4q0-104.18 50.251-159.33 50.251-56.379 148.3-56.379t148.3 56.379q50.251 55.153 50.251 159.33v26.964h-127.47v-35.543q0-44.123-17.159-63.733-17.159-20.836-50.251-20.836t-50.251 20.836q-17.159 19.61-17.159 63.733 0 53.928 28.19 94.374 29.415 40.446 87.02 91.922 47.8 44.123 77.215 78.44 29.415 33.092 50.251 80.892t20.836 109.08q0 104.18-51.476 160.56-51.476 55.153-149.53 55.153t-149.53-55.153q-51.476-56.379-51.476-160.56v-52.702h127.47v61.282q0 83.343 69.861 83.343t69.861-83.343q0-53.928-29.415-94.374-28.189-40.446-85.794-91.922-47.8-44.123-77.215-77.215-29.415-34.318-50.251-82.117-20.836-47.8-20.836-109.08z"/><path d="m1910 8456.5v122.56h-140.95v735.38h-134.82v-735.38h-140.95v-122.56z"/><path d="m2288.1 8818.1v122.56h-185.07v251.25h232.87v122.56h-367.69v-857.94h367.69v122.56h-232.87v239z"/><path d="m2795.7 8456.5h187.52v857.94h-127.47v-615.27l-93.148 615.27h-127.47l-100.5-606.69v606.69h-117.66v-857.94h187.52l99.276 609.14z"/><path d="m3271.7 9041.1q0-138.5 93.148-180.17-47.8-19.61-71.086-62.507-22.061-44.123-22.061-113.98v-15.933q0-104.18 50.251-158.11 50.251-53.928 150.75-53.928h154.43v122.56h-151.98q-33.092 0-51.476 19.61-17.159 19.61-17.159 63.733v52.702q0 49.025 19.61 69.861 20.836 20.836 61.282 20.836h58.83v-95.599h134.82v95.599h35.543v122.56h-35.543v281.89q0 36.769 2.4513 60.056 2.4513 22.061 12.256 44.123h-137.27q-9.805-26.964-12.256-67.41-35.543 77.215-125.01 77.215-73.538 0-111.53-50.251-37.995-50.251-37.995-145.85zm134.82 75.989q0 84.568 69.861 84.568 66.184 0 69.861-74.764v-198.55h-51.476q-46.574 0-67.41 25.738-20.836 24.513-20.836 83.343z"/><path d="m4101.9 8456.5v857.94h-134.82v-857.94z"/><path d="m4319.4 9314.4h-121.34v-857.94h169.14l138.5 513.54v-513.54h120.11v857.94h-138.5l-167.91-621.39z"/><path d="m4843.6 9314.4h-121.34v-857.94h169.14l138.5 513.54v-513.54h120.11v857.94h-138.5l-167.91-621.39z"/><path d="m5236.7 8662.4q0-102.95 52.702-159.33 52.702-56.379 151.98-56.379 99.276 0 151.98 56.379 52.702 56.379 52.702 159.33v446.13q0 102.95-52.702 159.33t-151.98 56.379q-99.276 0-151.98-56.379-52.702-56.379-52.702-159.33zm134.82 454.71q0 84.568 69.861 84.568t69.861-84.568v-463.29q0-84.568-69.861-84.568t-69.861 84.568z"/><path d="m6037.7 8456.5h123.79l-132.37 857.94h-201l-132.37-857.94h136.04l102.95 699.83z"/><path d="m6493.6 9314.4-23.287-155.66h-165.46l-23.287 155.66h-123.79l137.27-857.94h197.33l137.27 857.94zm-41.671-272.09-64.958-433.87-64.958 433.87z"/><path d="m7023.2 8456.5v122.56h-140.95v735.38h-134.82v-735.38h-140.95v-122.56z"/><path d="m7216.2 8456.5v857.94h-134.82v-857.94z"/><path d="m7302.6 8662.4q0-102.95 52.702-159.33 52.702-56.379 151.98-56.379t151.98 56.379q52.702 56.379 52.702 159.33v446.13q0 102.95-52.702 159.33t-151.98 56.379-151.98-56.379-52.702-159.33zm134.82 454.71q0 84.568 69.861 84.568t69.861-84.568v-463.29q0-84.568-69.861-84.568t-69.861 84.568z"/><path d="m7919.6 9314.4h-121.34v-857.94h169.14l138.5 513.54v-513.54h120.11v857.94h-138.5l-167.91-621.39z"/></g></g></svg>
