<?xml version="1.0" encoding="utf-8"?>
<!-- Generator: Adobe Illustrator 26.1.0, SVG Export Plug-In . SVG Version: 6.00 Build 0)  -->
<svg version="1.1" xmlns="http://www.w3.org/2000/svg" xmlns:xlink="http://www.w3.org/1999/xlink" x="0px" y="0px"
	 viewBox="0 0 141.73 160.3" style="enable-background:new 0 0 141.73 160.3;" xml:space="preserve">
<style type="text/css">
	.st0{fill:#7FBC42;}
</style>
<g id="artwork">
	<g>
		<g>
			<path class="st0" d="M55.43,40.74c0.89,0,1.61,0.73,1.61,1.63c0,0.9-0.72,1.63-1.61,1.63c-0.89,0-1.62-0.73-1.62-1.63
				C53.81,41.47,54.54,40.74,55.43,40.74 M55.43,47.05c2.56,0,4.64-2.1,4.64-4.68c0-2.58-2.08-4.68-4.64-4.68
				c-2.56,0-4.64,2.1-4.64,4.68C50.79,44.95,52.87,47.05,55.43,47.05"/>
		</g>
		<g>
			<path class="st0" d="M80.89,50.04c0.89,0,1.62,0.73,1.62,1.63c0,0.9-0.72,1.63-1.62,1.63c-0.89,0-1.62-0.73-1.62-1.63
				C79.28,50.77,80,50.04,80.89,50.04 M80.89,56.35c2.56,0,4.64-2.1,4.64-4.68c0-2.58-2.08-4.68-4.64-4.68
				c-2.56,0-4.64,2.1-4.64,4.68C76.25,54.25,78.33,56.35,80.89,56.35"/>
		</g>
		<g>
			<path class="st0" d="M57.15,75.24h-3.45l-1.72-23.09c0.79-0.34,2.06-0.78,3.44-0.78c1.38,0,2.66,0.44,3.44,0.78L57.15,75.24z
				 M61.78,50.5c-0.03-0.05-0.06-0.09-0.09-0.14c-0.01-0.01-0.01-0.01-0.01-0.01c-0.03-0.05-0.07-0.09-0.11-0.13l-0.03-0.03
				c-0.04-0.04-0.08-0.08-0.12-0.12c-0.01-0.01-0.01-0.01-0.02-0.01c-0.05-0.04-0.1-0.08-0.16-0.11c0,0-0.01-0.01-0.01-0.01
				c-0.11-0.07-2.69-1.61-5.81-1.61c-3.12,0-5.7,1.55-5.81,1.61c-0.49,0.3-0.77,0.85-0.73,1.42l1.9,25.53
				c0.06,0.8,0.72,1.41,1.51,1.41h6.26c0.79,0,1.45-0.62,1.51-1.41l1.52-20.42l3.75,6.86c0.28,0.5,0.79,0.79,1.33,0.79
				c0.25,0,0.5-0.06,0.73-0.19c0.73-0.41,1-1.33,0.59-2.07L61.78,50.5z"/>
		</g>
		<g>
			<path class="st0" d="M87.01,42.13l2.57-2.21v2.21H87.01z M81.51,75.02h-1.24l-1.05-14.04c0.45-0.16,1.04-0.32,1.66-0.32
				c0.62,0,1.22,0.16,1.66,0.32L81.51,75.02z M91.73,35.24c-0.53-0.25-1.17-0.16-1.62,0.22l-8.2,7.04
				c-0.48,0.41-0.66,1.09-0.44,1.69c0.22,0.6,0.78,1,1.42,1h6.69v14.81l-4.86-1.37c-0.54-0.29-2.04-1.01-3.83-1.01
				c-2.13,0-3.84,1.01-4.03,1.12c-0.49,0.3-0.77,0.85-0.73,1.42l1.23,16.51c0.06,0.8,0.72,1.41,1.51,1.41h4.05
				c0.79,0,1.45-0.62,1.51-1.41l1.09-14.65l4.07,1.15v13.38c0,0.84,0.68,1.53,1.51,1.53c0.84,0,1.51-0.68,1.51-1.53V36.62
				C92.61,36.03,92.27,35.49,91.73,35.24"/>
		</g>
	</g>
	<g>
		<path class="st0" d="M70.81,17.22c21.76,0,39.47,17.71,39.47,39.47S92.58,96.16,70.81,96.16S31.34,78.46,31.34,56.69
			S49.05,17.22,70.81,17.22 M70.81,14.17c-23.48,0-42.52,19.04-42.52,42.52s19.04,42.52,42.52,42.52s42.52-19.04,42.52-42.52
			S94.3,14.17,70.81,14.17L70.81,14.17z"/>
	</g>
	<g>
		<g>
			<path class="st0" d="M27.02,122.67l-2.71-9.12h2.24l1.64,6.22l1.64-6.22h2.05l-2.71,9.12v4.52h-2.14V122.67z"/>
		</g>
		<g>
			<path class="st0" d="M32.55,116.82c0-2.18,1.15-3.43,3.25-3.43s3.25,1.25,3.25,3.43v7.09c0,2.18-1.15,3.43-3.25,3.43
				s-3.25-1.25-3.25-3.43V116.82z M34.69,124.05c0,0.97,0.43,1.34,1.11,1.34s1.11-0.37,1.11-1.34v-7.37c0-0.97-0.43-1.34-1.11-1.34
				s-1.11,0.37-1.11,1.34V124.05z"/>
		</g>
		<g>
			<path class="st0" d="M42.49,113.55v10.52c0,0.97,0.43,1.33,1.11,1.33c0.68,0,1.11-0.35,1.11-1.33v-10.52h2.03v10.39
				c0,2.18-1.09,3.43-3.2,3.43s-3.2-1.25-3.2-3.43v-10.39H42.49z"/>
		</g>
		<g>
			<path class="st0" d="M47.57,113.55h6.62v1.95h-2.24v11.69h-2.14V115.5h-2.24V113.55z"/>
		</g>
		<g>
			<path class="st0" d="M57.28,127.19h-2.14v-13.64h2.14v5.85h2.44v-5.85h2.18v13.64h-2.18v-5.85h-2.44V127.19z"/>
		</g>
		<g>
			<path class="st0" d="M66.47,113.55h2.14v11.69h3.53v1.95h-5.67V113.55z"/>
		</g>
		<g>
			<path class="st0" d="M75.22,119.3h2.94v1.95h-2.94v3.99h3.7v1.95h-5.85v-13.64h5.85v1.95h-3.7V119.3z"/>
		</g>
		<g>
			<path class="st0" d="M87.18,127.19h-2.16l-0.37-2.47h-2.63l-0.37,2.47h-1.97l2.18-13.64H85L87.18,127.19z M82.29,122.86h2.07
				l-1.03-6.9L82.29,122.86z"/>
		</g>
		<g>
			<path class="st0" d="M88.18,113.55h3.39c2.14,0,3.2,1.19,3.2,3.37v6.9c0,2.18-1.05,3.37-3.2,3.37h-3.39V113.55z M90.32,115.5
				v9.74h1.21c0.68,0,1.09-0.35,1.09-1.32v-7.09c0-0.97-0.41-1.33-1.09-1.33H90.32z"/>
		</g>
		<g>
			<path class="st0" d="M96.13,113.55h2.14v13.64h-2.14V113.55z"/>
		</g>
		<g>
			<path class="st0" d="M101.74,117.31v9.88h-1.93v-13.64h2.69l2.2,8.16v-8.16h1.91v13.64h-2.2L101.74,117.31z"/>
		</g>
		<g>
			<path class="st0" d="M111.37,119.59h3v4.33c0,2.18-1.09,3.43-3.2,3.43s-3.2-1.25-3.2-3.43v-7.09c0-2.18,1.09-3.43,3.2-3.43
				s3.2,1.25,3.2,3.43v1.33h-2.03v-1.46c0-0.97-0.43-1.34-1.11-1.34s-1.11,0.37-1.11,1.34v7.37c0,0.97,0.43,1.33,1.11,1.33
				s1.11-0.35,1.11-1.33v-2.51h-0.97V119.59z"/>
		</g>
		<g>
			<path class="st0" d="M115.36,127.19v-2.07h2.07v1.85l-0.94,2.16h-0.88l0.57-1.95H115.36z"/>
		</g>
	</g>
	<g>
		<g>
			<path class="st0" d="M19.5,146.49h-2.16l-0.37-2.47h-2.63l-0.37,2.47H12l2.18-13.64h3.14L19.5,146.49z M14.61,142.17h2.07
				l-1.03-6.9L14.61,142.17z"/>
		</g>
		<g>
			<path class="st0" d="M20.5,132.85h3.39c2.14,0,3.2,1.19,3.2,3.37v6.9c0,2.18-1.05,3.37-3.2,3.37H20.5V132.85z M22.64,134.8v9.74
				h1.21c0.68,0,1.09-0.35,1.09-1.32v-7.09c0-0.97-0.41-1.33-1.09-1.33H22.64z"/>
		</g>
		<g>
			<path class="st0" d="M30.49,132.85v10.52c0,0.97,0.43,1.33,1.11,1.33c0.68,0,1.11-0.35,1.11-1.33v-10.52h2.03v10.39
				c0,2.18-1.09,3.43-3.2,3.43s-3.2-1.25-3.2-3.43v-10.39H30.49z"/>
		</g>
		<g>
			<path class="st0" d="M36.2,132.85h2.14v11.69h3.53v1.95H36.2V132.85z"/>
		</g>
		<g>
			<path class="st0" d="M41.41,132.85h6.62v1.95h-2.24v11.69h-2.14V134.8h-2.24V132.85z"/>
		</g>
		<g>
			<path class="st0" d="M51.85,132.7c2.08,0,3.16,1.25,3.16,3.43v0.43h-2.03v-0.57c0-0.97-0.39-1.34-1.07-1.34s-1.07,0.37-1.07,1.34
				c0,2.81,4.19,3.33,4.19,7.23c0,2.18-1.09,3.43-3.2,3.43s-3.2-1.25-3.2-3.43v-0.84h2.03v0.97c0,0.97,0.43,1.33,1.11,1.33
				c0.68,0,1.11-0.35,1.11-1.33c0-2.81-4.19-3.33-4.19-7.23C48.69,133.95,49.76,132.7,51.85,132.7z"/>
		</g>
		<g>
			<path class="st0" d="M62.16,132.7c2.08,0,3.16,1.25,3.16,3.43v0.43h-2.03v-0.57c0-0.97-0.39-1.34-1.07-1.34s-1.07,0.37-1.07,1.34
				c0,2.81,4.19,3.33,4.19,7.23c0,2.18-1.09,3.43-3.2,3.43s-3.2-1.25-3.2-3.43v-0.84h2.03v0.97c0,0.97,0.43,1.33,1.11,1.33
				c0.68,0,1.11-0.35,1.11-1.33c0-2.81-4.19-3.33-4.19-7.23C59,133.95,60.07,132.7,62.16,132.7z"/>
		</g>
		<g>
			<path class="st0" d="M68.61,132.85v10.52c0,0.97,0.43,1.33,1.11,1.33c0.68,0,1.11-0.35,1.11-1.33v-10.52h2.03v10.39
				c0,2.18-1.09,3.43-3.2,3.43s-3.2-1.25-3.2-3.43v-10.39H68.61z"/>
		</g>
		<g>
			<path class="st0" d="M80.67,136.22V138c0,2.18-1.05,3.37-3.2,3.37h-1.01v5.12h-2.14v-13.64h3.16
				C79.61,132.85,80.67,134.04,80.67,136.22z M76.46,134.8v4.62h1.01c0.68,0,1.05-0.31,1.05-1.29v-2.05c0-0.97-0.37-1.29-1.05-1.29
				H76.46z"/>
		</g>
		<g>
			<path class="st0" d="M88.01,136.22V138c0,2.18-1.05,3.37-3.2,3.37H83.8v5.12h-2.14v-13.64h3.16
				C86.96,132.85,88.01,134.04,88.01,136.22z M83.8,134.8v4.62h1.01c0.68,0,1.05-0.31,1.05-1.29v-2.05c0-0.97-0.37-1.29-1.05-1.29
				H83.8z"/>
		</g>
		<g>
			<path class="st0" d="M88.83,136.13c0-2.18,1.15-3.43,3.25-3.43s3.25,1.25,3.25,3.43v7.09c0,2.18-1.15,3.43-3.25,3.43
				s-3.25-1.25-3.25-3.43V136.13z M90.97,143.36c0,0.97,0.43,1.34,1.11,1.34c0.68,0,1.11-0.37,1.11-1.34v-7.37
				c0-0.97-0.43-1.34-1.11-1.34c-0.68,0-1.11,0.37-1.11,1.34V143.36z"/>
		</g>
		<g>
			<path class="st0" d="M101.2,146.49c-0.12-0.35-0.19-0.57-0.19-1.68v-2.14c0-1.27-0.43-1.73-1.4-1.73h-0.74v5.55h-2.14v-13.64
				h3.23c2.22,0,3.18,1.03,3.18,3.14v1.07c0,1.4-0.45,2.32-1.4,2.77c1.07,0.45,1.42,1.48,1.42,2.9v2.1c0,0.66,0.02,1.15,0.23,1.66
				H101.2z M98.87,134.8v4.19h0.84c0.8,0,1.29-0.35,1.29-1.44v-1.34c0-0.97-0.33-1.4-1.09-1.4H98.87z"/>
		</g>
		<g>
			<path class="st0" d="M103.93,132.85h6.62v1.95h-2.24v11.69h-2.14V134.8h-2.24V132.85z"/>
		</g>
		<g>
			<path class="st0" d="M111.49,132.85h2.14v13.64h-2.14V132.85z"/>
		</g>
		<g>
			<path class="st0" d="M117.1,136.62v9.88h-1.93v-13.64h2.69l2.2,8.16v-8.16h1.91v13.64h-2.2L117.1,136.62z"/>
		</g>
		<g>
			<path class="st0" d="M126.73,138.89h3v4.33c0,2.18-1.09,3.43-3.2,3.43c-2.1,0-3.2-1.25-3.2-3.43v-7.09c0-2.18,1.09-3.43,3.2-3.43
				c2.1,0,3.2,1.25,3.2,3.43v1.33h-2.03v-1.46c0-0.97-0.43-1.34-1.11-1.34c-0.68,0-1.11,0.37-1.11,1.34v7.37
				c0,0.97,0.43,1.33,1.11,1.33c0.68,0,1.11-0.35,1.11-1.33v-2.51h-0.97V138.89z"/>
		</g>
	</g>
</g>
<g id="guides">
</g>
</svg>
